<svg width="581" height="530" viewBox="0 0 581 530" fill="none" xmlns="http://www.w3.org/2000/svg">
<path d="M210.49 0.62C213.325 0.213174 216.186 0.00599719 219.05 0C259.05 0 299.05 0 339.05 0C341.902 0.0455201 344.747 0.306261 347.56 0.78C347.68 45.44 347.51 90.09 347.65 134.78C317.11 135.07 286.57 134.83 256.03 134.91C240.84 134.8 225.65 135.13 210.47 134.73C210.377 90.0233 210.383 45.32 210.49 0.62Z" fill="#ED1C24"/>
<path d="M74.68 140.92C120.287 140.734 165.9 140.734 211.52 140.92C211.63 185.92 211.7 230.85 211.52 275.82C165.95 275.82 120.37 275.94 74.8 275.75C74.44 230.81 74.6 185.87 74.68 140.92Z" fill="#ED1C24"/>
<path d="M350.46 141C375.32 140.52 400.19 140.94 425.06 140.79C445.83 140.88 466.61 140.62 487.39 140.92C487.61 172.74 487.39 204.55 487.48 236.36C487.39 249.52 487.69 262.68 487.32 275.84C441.714 275.84 396.107 275.84 350.5 275.84C350.33 230.91 350.39 186 350.46 141Z" fill="#ED1C24"/>
<path d="M397.78 13.1998C403.5 9.27981 410.92 8.96981 417.53 10.1998C424.53 12.5898 427.53 20.5598 428.39 27.3398C429.57 43.2298 424.26 58.5998 419.16 73.3898C418.579 75.5577 418.167 77.7678 417.93 79.9998C429.19 80.4198 440.48 79.9298 451.75 79.6798C462.2 78.4898 473.81 78.3398 482.75 84.6798C491.21 90.8698 491.34 103.87 485.31 111.79C481.56 117.07 475.53 120.17 469.39 121.79C463.1 123.44 456.53 122.7 450.13 123.39C445.75 123.86 441.34 123.78 436.95 124.01C432.2 124.1 428.36 127.24 423.95 128.63C421.31 127.38 419.46 125.03 417.48 122.98C410.18 114.98 402.55 107.22 395.48 98.9798C390 92.6198 383.15 87.5098 378.37 80.5298C380.78 77.5298 383.81 74.9098 385.17 71.2598C384.33 56.9098 382.73 41.8698 387.67 28.0298C389.92 22.4698 392.72 16.6798 397.78 13.1998Z" fill="#978443"/>
<path d="M161.14 11.2901C169.04 10.6901 177.24 14.0301 181.91 20.5501C189.44 30.7801 190.58 44.0701 190.52 56.3701C190.7 62.0201 189.19 67.6101 189.64 73.2501C191.08 76.7501 194.64 78.9301 196.36 82.2501C192.13 88.3401 186.47 93.2501 181.68 98.9501C173.68 106.95 166.68 115.95 158.86 124.12C156.7 126.45 154.66 128.99 151.95 130.71C147.11 129.71 143.28 125.59 138.12 125.77C125.03 124.85 110.97 127.69 98.7903 121.55C92.5003 118.07 86.2703 112.09 86.2803 104.39C86.2803 99.8701 85.3703 94.5801 88.6003 90.8601C93.7603 84.6101 102.26 82.4501 110.01 81.8601C120.7 81.7901 131.41 81.7601 142.1 82.0701C146.87 82.1501 152 83.8501 156.54 81.6801C156.817 80.415 156.817 79.1052 156.54 77.8401C151.06 61.2901 144.59 44.1501 146.45 26.4001C147.08 18.7801 153.4 12.0001 161.14 11.2901Z" fill="#978443"/>
<path d="M438.39 40.7302C441.23 36.2802 446.39 33.0502 451.8 33.7302C463.69 35.4302 472.53 49.5002 467.52 60.7302C464.35 65.5902 459.22 68.8502 454.05 71.2602C446.32 74.4002 437.45 75.9302 429.39 73.0702C429.77 61.8602 432.03 50.2402 438.39 40.7302ZM443.9 49.5202C446.355 53.0023 449.12 56.2555 452.16 59.2402C454.3 57.4202 456.57 55.6602 458.16 53.2402C456.59 49.3602 453.16 46.7002 450.23 43.8802C448.11 45.7802 446 47.6602 443.9 49.5202Z" fill="#978443"/>
<path d="M120.42 36.75C122.806 36.044 125.341 36.0113 127.744 36.6554C130.148 37.2996 132.327 38.5954 134.04 40.4C139.91 46.56 142.45 55 144.33 63.15C144.88 67.03 146.13 71.15 144.71 75.01C139.62 76.548 134.245 76.897 128.998 76.0301C123.752 75.1633 118.775 73.1036 114.45 70.01C109.64 66.73 104.71 61.68 105.58 55.34C106.6 47.2 112.16 39 120.42 36.75ZM117 56.22C118.595 58.2321 120.355 60.1085 122.26 61.83C125.01 59.23 128.14 56.72 129.67 53.16C129.516 51.6733 128.927 50.2651 127.977 49.1109C127.028 47.9568 125.759 47.1078 124.33 46.67C121.06 49.06 118.17 52.3 117 56.22Z" fill="#978443"/>
<path d="M273.65 159.93C279.824 156.363 287.036 155.021 294.08 156.13C302.63 157.43 308.42 166.06 308.62 174.33C308.84 181.66 308.85 189.02 309.73 196.33C309.73 198.81 312.64 199.22 314.35 200.27C323.85 204.27 331.73 211.27 338.69 218.77C341.79 221.77 344.39 227.46 340.54 230.83C336.95 232.29 332.79 231.72 329.33 233.55C326.62 235.12 327.53 238.76 327.26 241.36C326.92 247.36 329.26 253.3 327.89 259.19C326.76 263.94 322.41 266.58 318.89 269.42C316.27 270.8 318.16 274.29 320.03 275.49C322.61 276.56 325.48 276.65 328.12 277.56C329.69 279.11 331.28 281.84 329.82 283.94C327.24 288.86 319.33 286.41 317.07 291.7C315.59 294.96 318.64 297.75 320.83 299.7C329.42 306.94 337.12 316.7 337.75 328.31C338.88 339.02 334.12 349.12 328.81 358.1C325.2 364.37 319.91 369.39 314.96 374.57C322.17 378.65 329.55 382.44 336.49 386.97C348.55 394.62 361.58 400.77 373.05 409.31C353.5 421.85 329.93 425.96 307.14 427.58C286.876 428.321 266.601 426.439 246.82 421.98C236.12 419.98 225.7 416.89 215.18 414.17C211.32 413.171 207.547 411.86 203.9 410.25C208.69 406.11 214.45 403.39 219.81 400.1C229.64 393.89 239.6 387.88 249.52 381.82C253.02 379.67 256.79 377.82 259.87 375.06C258.47 371.85 255.87 369.4 253.72 366.72C246.28 357.86 240.79 347.03 239.64 335.4C238.74 325.4 242.19 315.31 247.89 307.14C250.69 303.02 254.82 300.08 258.01 296.29C259.69 294.39 259.22 290.79 256.86 289.62C253.33 287.53 248.91 287.32 245.65 284.72C244.25 279.56 250.06 276.97 253.65 274.79C254.107 274.61 254.522 274.338 254.869 273.991C255.216 273.644 255.489 273.229 255.67 272.773C255.851 272.316 255.936 271.828 255.921 271.337C255.905 270.846 255.789 270.364 255.58 269.92C253.72 266.14 249.32 263.8 248.8 259.37C248.04 252.06 249.16 244.72 248.74 237.42C248.65 233.56 244.52 231.52 241.12 231.31C238.85 230.74 235.2 231.04 234.63 228.08C233.97 222.7 238.05 218.32 241.48 214.72C248.6 207.19 258.03 202.47 267.63 198.9C267.92 190.71 268.29 182.51 268.29 174.31C268.33 169.17 268.83 163 273.65 159.93Z" fill="#978443"/>
<path d="M0 302C5.67 301.52 11.37 301.52 17.05 301.58C45.67 301.72 74.28 301.48 102.89 301.71C103.55 308.23 103.36 314.79 103.39 321.34C103.39 334.34 103.39 347.34 103.31 360.41C103.31 363.11 103.37 366.05 105.31 368.18C118.42 383.97 132.91 398.7 149.25 411.18C160.62 419.44 172.25 427.46 184.97 433.61C211.669 447.849 241.212 455.943 271.44 457.3C278.64 458.3 285.89 457.58 293.08 456.92C301.47 456.76 309.75 455.3 318.08 454.85C329.2 453.94 340.08 451.4 351.08 449.5C382.25 443.9 411.49 429.25 435.54 408.78C448.726 397.238 460.564 384.242 470.83 370.04C472.82 367.232 473.784 363.825 473.56 360.39C473.28 340.54 471.56 320.48 474.65 300.79C510 300.79 545.36 300.59 580.71 300.89C576.36 311.97 567.71 320.68 562.8 331.44C563.62 336.36 566.45 340.66 568.17 345.3C571.48 353.91 575.8 362.1 578.86 370.81C575.972 371.377 573.042 371.712 570.1 371.81C551.27 371.81 532.44 371.66 513.61 371.86C513.46 391.05 513.5 410.24 513.61 429.43C513.9 434.36 510.3 438.13 507.46 441.71C486.701 465.923 461.371 485.806 432.92 500.22C416.24 508.13 399.33 515.72 381.33 520C348.82 529.26 314.67 530.88 281.06 529.27C262.737 528.851 244.514 526.447 226.71 522.1C208.896 518.268 191.366 513.222 174.24 507C165.99 503.34 157.71 499.74 149.48 496C140.28 491.87 131.77 486.43 122.98 481.53C116.43 477.46 110.29 472.78 103.77 468.67C91.5 459.42 79.36 449.87 68.52 438.96C66.12 436.76 66.03 433.35 65.9 430.33C65.64 411.48 66.18 392.61 65.76 373.75C44.64 373.59 23.5 374.1 2.39 373.49C8.17 360.02 16.9 348.08 23.94 335.27C25.48 333.38 23.66 331.52 22.52 329.99C14.79 320.84 7.66 311.23 0 302ZM482.63 312.83C481.17 318.91 481.7 325.19 481.73 331.38C481.8 339.08 481.33 346.81 482.31 354.48C489.66 349.72 496.77 342.7 497.26 333.43C496.51 324.46 490.04 317.3 482.63 312.83ZM82.49 338.3C83.25 346.88 89.68 354.06 97.1 357.93C97.75 350.76 97.42 343.56 97.46 336.39C97.46 329.89 97.91 323.32 96.46 316.93C89.33 321.71 82.09 329.05 82.49 338.3ZM476.08 395.4C473.42 398.86 469.31 400.5 465.23 401.57L467.94 406.81C466.14 407.13 464.35 407.463 462.57 407.81C460.88 411.01 458.95 414.28 455.63 416.01C445.88 421.62 437.88 429.69 428.49 435.83C423.23 439.13 418.49 443.62 412.31 445.04C408.9 445.75 407.87 449.75 404.8 451.04C393.14 456.5 381.99 463.25 369.56 466.94C361.56 469.94 353.43 472.34 345.22 474.55C337.55 476.47 333.52 486.15 337.44 492.98C339.76 497.48 345.75 497.93 350.04 496.41C352.76 495.66 352.78 492.41 353.6 490.23C351.717 489.882 349.779 489.972 347.936 490.492C346.093 491.012 344.394 491.949 342.97 493.23C342.04 491.04 340.69 488.93 340.52 486.51C340.827 484.726 341.559 483.043 342.654 481.602C343.749 480.161 345.174 479.004 346.81 478.23C349.81 477.4 353 478.3 356.05 478.62C355.23 480.76 354.39 482.88 353.57 485.02C356.993 486.039 360.549 486.534 364.12 486.49C368.28 486.55 372.12 488.22 376.01 489.49C375.55 486.58 375.08 483.68 374.58 480.78C377.43 479.64 381.89 479.08 382.17 475.27C382.57 471.7 378.59 470.39 376.17 468.77L381.84 467.17C385.21 470.99 388.72 475.29 393.91 476.58C399.67 478.32 405.57 474.65 409.03 470.25C412.36 466.25 409.84 459.46 404.72 458.66C401.16 457.87 399.91 462.24 398.09 464.39C397.205 463.037 396.135 461.815 394.91 460.76C400.21 457.97 405.35 453.61 411.6 453.61C415.19 457 416.21 462.17 419.44 465.85C420.69 466.91 422.53 466.85 424.04 467.38C423.04 461.27 418.69 456.62 416.69 450.94C415.77 447.47 420.34 446.46 422.6 445.12C422.92 447.89 423.01 450.74 423.97 453.39C425.037 455.53 426.903 457.165 429.165 457.941C431.427 458.718 433.903 458.574 436.06 457.54C439.51 456.54 440.76 452.87 442.16 449.94C439.99 449.75 437.57 448.28 435.53 449.54C434.257 451.487 433.15 453.538 432.22 455.67C427.66 452.25 426.41 444.99 430.35 440.67C434.05 436.61 438.6 433.46 443.18 430.47C440.4 434.62 437.18 438.67 436.33 443.73C439.408 443.434 442.447 442.825 445.4 441.91C450.4 440.32 455.65 440.67 460.76 439.91C457.91 434.31 452.42 429.99 451.16 423.68C453.107 421.73 455.225 419.96 457.49 418.39C457.34 421.04 457.21 423.69 457.16 426.39C459.16 426.05 461.63 426.24 463.16 424.57C466.411 421.484 469.451 418.183 472.26 414.69C470.52 413.61 468.777 412.55 467.03 411.51L471.5 410.51C474.29 413.91 477.12 417.27 479.93 420.67L484.49 420C481.93 413.83 476.73 409.42 473.17 403.9C477.42 399.4 480.99 394.13 486.02 390.44C487.93 388.55 489.58 391.16 491.11 392.24C487.18 394.15 482.38 395.65 480.28 399.86C479.28 401.95 478.76 404.97 480.72 406.7C483.23 408.45 486.62 406.8 488.41 404.7C490.41 402.54 488.91 399.5 488.66 397C493.648 396.51 498.662 397.617 502.98 400.16L504.09 398.34C501.09 394.7 497.55 391.48 494.39 387.95C492.3 385.86 492.56 382.72 492.23 380.03C485.11 382.94 481.33 390.19 476.08 395.4ZM78.01 385.87C80.01 391.57 85.37 394.81 89.22 399.15C84.78 397.92 80.4 396.49 75.96 395.27C75.8151 399.114 77.1135 402.874 79.6 405.81C83.21 409.99 83.09 415.72 83.73 420.89C89.24 416.64 92.19 410.08 97.37 405.49C98.4869 406.692 99.4386 408.037 100.2 409.49C99.11 415.08 93.87 418.87 92.68 424.44C92.94 425.82 93.38 427.16 93.77 428.51C98.23 424.41 101.02 418.99 104.56 414.16C106.286 413.958 107.997 413.641 109.68 413.21C109.04 410.21 108.03 407.38 107.23 404.47C105.82 404.92 104.42 405.38 103.02 405.85C97.1 400.27 91.02 394.85 84.73 389.67C82.6916 388.076 80.4266 386.795 78.01 385.87ZM108.55 416.74C107.09 420.44 105.19 424.22 105.08 428.24C107.36 433.9 110.8 439.04 113.71 444.4C114.05 442.69 115.03 441.01 114.41 439.24C113.076 434.56 111.35 430 109.25 425.61C111.71 426.27 114.18 427.3 116.77 427.17C118.61 426.17 120.14 424.7 122.08 423.89C123.576 424.831 124.946 425.956 126.16 427.24C123.75 428.24 119.74 428.33 119.42 431.67C119.302 433.691 119.799 435.7 120.847 437.432C121.896 439.164 123.445 440.537 125.29 441.37C129.38 441.95 133.41 440.37 137.42 439.68C136.36 444.68 133.42 449.14 133.19 454.29L135.02 454.65C139.85 450.48 141.88 444.1 145.57 439.02C146.98 440.46 149.16 441.53 149.71 443.58C149.23 447.85 146.19 451.26 144.84 455.25C143.73 457.74 144.74 460.43 145.22 462.94C150.03 457.94 152.09 451.2 155.43 445.28C157.93 446.28 160.43 447.28 162.83 448.53C160.68 450.63 157.83 452.12 156.38 454.84C155.64 456.528 155.306 458.367 155.405 460.208C155.504 462.049 156.033 463.841 156.95 465.44C158.134 467.17 159.84 468.476 161.819 469.169C163.797 469.861 165.945 469.904 167.95 469.29C168.24 467.54 168.37 465.61 167.35 464.07C164.72 462.78 161.72 462.66 158.88 462.24C160.39 459.33 161.37 455.49 164.71 454.16C168.05 453.11 171.58 454.05 174.95 454.5C174.03 458.11 172.71 461.67 172.46 465.41C172.387 466.131 172.531 466.858 172.873 467.497C173.215 468.137 173.74 468.66 174.38 469C178.21 468.93 181.95 467.86 185.72 467.27C184.72 471.82 182.4 476.83 184.96 481.27C187.96 476.67 189.73 471.08 194.67 468C193.45 466.16 192.75 463.69 190.77 462.54C186.64 461.63 182.38 461.93 178.19 461.7C178.66 460.24 179.14 458.8 179.63 457.36C188.02 459.77 195.71 463.98 203.73 467.36C202.01 469.36 198.05 471.74 200.5 474.62C204.93 477.17 210.5 479.18 215.64 478.06C215.86 476.06 215.85 474.06 215.92 472.06C216.7 473.45 218 474.68 218.26 476.31C217.87 480.23 215.94 483.8 215.43 487.7C214.93 489.87 217.05 491.38 218.03 493.07C221.42 487.7 222.27 481.32 224.03 475.33L229.03 473.28C226.97 470.94 224.947 468.573 222.96 466.18C222.1 467.48 221.26 468.78 220.42 470.1C216.57 467.36 211.83 467.04 207.42 465.76C195.42 459.15 182.14 454.97 170.1 448.27C164.83 445.19 157.51 443.73 155.63 437.06C153.81 437.83 151.73 439.11 149.91 437.57C138.27 430.09 126.68 422.47 114.47 415.92C112.69 415 109.24 414 108.55 416.74ZM447.14 442.27C446.85 443.37 444.26 445.53 446.33 446.02C449.44 448.15 452.33 445.16 452.81 442.09C450.918 442.039 449.025 442.1 447.14 442.27ZM237.95 474.41C240.08 476.79 244.12 478.61 243.58 482.35C243.78 485.81 242.26 490.57 246.08 492.61C249.67 491.5 252.99 489.7 256.45 488.27C256.45 493.08 256.25 498.56 260.36 501.92C260.88 496.17 262.36 490.49 265.75 485.75L261.97 481.63C265.357 482.23 268.737 482.877 272.11 483.57C272.17 489.76 271.8 495.94 271.97 502.12L275.41 503.48C276.82 496.71 277.16 489.8 277.75 482.93C282.63 483.53 287.54 483.77 292.45 484.05C288.63 486.26 284.73 488.33 280.9 490.52C283.56 493.3 287.13 494.75 290.74 495.87C295.54 497.33 298.84 501.27 302.31 504.65C303.26 498 303.07 491.27 303.26 484.58L309.57 484.9C309.99 490.22 309.49 495.66 310.57 500.9C311.57 502.38 313.57 502.9 315.07 503.8C315.59 497.11 314.96 490.42 314.34 483.8L318.1 481C315.34 479.3 312.523 477.697 309.65 476.19C309.25 477.477 308.86 478.767 308.48 480.06C299.96 479.9 291.48 480.19 282.93 480.19C279.61 480.44 277.04 478.13 274.18 476.95C272.921 477.545 271.719 478.255 270.59 479.07C259.62 478.23 248.96 475 237.95 474.41Z" fill="#978443"/>
<path d="M82.98 402.25C85.45 403.25 88.65 403.67 89.93 406.35C89 407.78 87.53 409.7 85.58 408.87C83.96 407 83.65 404.51 82.98 402.25Z" fill="#978443"/>
<path d="M448.44 431.05C450.161 432.626 451.29 434.743 451.64 437.05C449.06 437.05 446.49 437.013 443.93 436.94C445.41 435 446.9 433 448.44 431.05Z" fill="#978443"/>
<path d="M385.83 464C387.39 463.57 388.97 463.15 390.55 462.73C392.33 465.46 393.72 470.53 397.9 469.67C400.9 468.28 403.37 466.08 406.11 464.3C405.56 471.46 396.39 473.78 390.97 470.46C388.33 469.16 387.11 466.43 385.83 464Z" fill="#978443"/>
<path d="M362.38 473.77C363.748 473.302 365.085 472.744 366.38 472.1C367.38 475.71 368.31 479.35 369.17 483L363.33 482L365.82 476.78C364.66 475.78 363.48 474.81 362.38 473.77Z" fill="#978443"/>
<path d="M249.39 479.28C252.48 479.891 255.532 480.682 258.53 481.65C255.582 482.877 252.525 483.824 249.4 484.48C249.39 482.74 249.38 481 249.39 479.28Z" fill="#978443"/>
<path d="M290.64 491.57C293.089 490.064 295.805 489.045 298.64 488.57C298.36 490.46 298.07 492.36 297.79 494.26C295.39 493.42 293 492.53 290.64 491.57Z" fill="#978443"/>
<path d="M476.08 395.4C481.37 390.19 485.08 382.94 492.29 380.02C492.62 382.71 492.36 385.85 494.45 387.94C497.61 391.47 501.11 394.69 504.15 398.33L503.04 400.15C498.721 397.61 493.707 396.507 488.72 397C488.97 399.5 490.43 402.54 488.47 404.7C486.68 406.77 483.29 408.42 480.78 406.7C478.78 404.97 479.32 401.95 480.34 399.86C482.44 395.65 487.24 394.15 491.17 392.24C489.64 391.16 487.99 388.55 486.08 390.44C481.08 394.13 477.48 399.44 473.23 403.9C476.79 409.42 481.99 413.83 484.55 420L479.99 420.67C477.18 417.27 474.35 413.91 471.56 410.51L467.09 411.51C468.844 412.55 470.587 413.61 472.32 414.69C469.511 418.183 466.471 421.484 463.22 424.57C461.67 426.24 459.22 426.05 457.22 426.39C457.22 423.73 457.4 421.08 457.55 418.39C455.286 419.96 453.167 421.73 451.22 423.68C452.48 429.99 457.97 434.31 460.82 439.91C455.71 440.65 450.42 440.3 445.46 441.91C442.507 442.825 439.468 443.435 436.39 443.73C437.27 438.67 440.46 434.62 443.24 430.47C438.66 433.47 434.11 436.61 430.41 440.67C426.47 445 427.72 452.26 432.28 455.67C433.21 453.538 434.317 451.487 435.59 449.54C437.59 448.28 440.05 449.75 442.22 449.94C440.82 452.87 439.57 456.5 436.12 457.54C433.964 458.574 431.487 458.718 429.225 457.941C426.963 457.165 425.097 455.53 424.03 453.39C423.03 450.74 423.03 447.89 422.66 445.12C420.4 446.46 415.83 447.47 416.75 450.94C418.75 456.62 423.12 461.27 424.1 467.38C422.59 466.82 420.75 466.91 419.5 465.85C416.27 462.17 415.25 457 411.66 453.61C405.41 453.61 400.27 457.97 394.97 460.76C396.195 461.815 397.266 463.037 398.15 464.39C399.97 462.24 401.22 457.87 404.78 458.66C409.9 459.46 412.42 466.29 409.09 470.25C405.63 474.65 399.73 478.32 393.97 476.58C388.78 475.29 385.27 470.99 381.9 467.17L376.23 468.77C378.61 470.39 382.59 471.7 382.23 475.27C381.95 479.08 377.49 479.64 374.64 480.78C375.14 483.68 375.64 486.58 376.07 489.49C372.2 488.18 368.34 486.49 364.18 486.49C360.588 486.534 357.011 486.032 353.57 485C354.39 482.86 355.23 480.74 356.05 478.6C353 478.28 349.84 477.38 346.81 478.21C345.174 478.984 343.749 480.141 342.654 481.582C341.559 483.023 340.828 484.707 340.52 486.49C340.69 488.91 342.04 491.02 342.97 493.21C344.394 491.929 346.093 490.992 347.936 490.472C349.779 489.952 351.717 489.862 353.6 490.21C352.78 492.4 352.76 495.64 350.04 496.39C345.75 497.91 339.76 497.46 337.44 492.96C333.52 486.13 337.55 476.45 345.22 474.53C353.43 472.32 361.59 469.91 369.56 466.92C381.99 463.23 393.14 456.48 404.8 451.02C407.87 449.71 408.9 445.71 412.31 445.02C418.52 443.6 423.23 439.11 428.49 435.81C437.88 429.67 445.88 421.6 455.63 415.99C458.95 414.26 460.88 410.99 462.57 407.79C464.35 407.45 466.14 407.117 467.94 406.79L465.23 401.55C469.33 400.5 473.42 398.86 476.08 395.4ZM448.44 431.05C446.9 433 445.44 434.99 443.93 436.98C446.49 437.027 449.06 437.063 451.64 437.09C451.299 434.769 450.169 432.636 448.44 431.05ZM385.83 464C387.11 466.44 388.36 469.17 390.97 470.46C396.39 473.78 405.56 471.46 406.11 464.3C403.37 466.08 400.87 468.3 397.9 469.67C393.72 470.53 392.33 465.46 390.55 462.73C388.97 463.14 387.39 463.56 385.83 464ZM362.38 473.78C363.48 474.78 364.66 475.78 365.84 476.78L363.33 482L369.14 483C368.28 479.35 367.36 475.71 366.35 472.1C365.065 472.743 363.738 473.3 362.38 473.77V473.78Z" fill="#ED1C24"/>
<path d="M78.0102 385.87C80.428 386.801 82.693 388.089 84.7302 389.69C90.9802 394.9 97.1002 400.29 103.02 405.87C104.42 405.4 105.82 404.94 107.23 404.49C108.03 407.4 109.04 410.26 109.68 413.23C107.997 413.661 106.286 413.979 104.56 414.18C101.02 419.01 98.2302 424.43 93.7702 428.53C93.3802 427.18 92.9402 425.84 92.6802 424.46C93.8702 418.89 99.1102 415.1 100.2 409.51C99.4388 408.057 98.487 406.712 97.3702 405.51C92.1902 410.1 89.2402 416.66 83.7302 420.91C83.0902 415.74 83.2102 410.01 79.6002 405.83C77.1137 402.894 75.8152 399.135 75.9602 395.29C80.4002 396.51 84.7802 397.94 89.2202 399.17C85.3302 394.81 80.0402 391.57 78.0102 385.87ZM83.0102 402.25C83.6802 404.51 84.0102 407.04 85.6102 408.87C87.5602 409.7 89.0302 407.78 89.9602 406.35C88.6502 403.67 85.4502 403.24 82.9802 402.25H83.0102Z" fill="#ED1C24"/>
<path d="M108.55 416.74C109.24 414.03 112.69 414.99 114.47 415.98C126.68 422.53 138.27 430.15 149.91 437.63C151.73 439.17 153.81 437.89 155.63 437.12C157.51 443.79 164.83 445.25 170.1 448.33C182.1 455.03 195.37 459.21 207.42 465.82C211.8 467.1 216.54 467.42 220.42 470.16C221.26 468.84 222.1 467.54 222.96 466.24C224.96 468.627 226.983 470.993 229.03 473.34L224.03 475.39C222.3 481.39 221.45 487.76 218.03 493.13C217.03 491.44 214.93 489.93 215.43 487.76C215.94 483.86 217.87 480.29 218.26 476.37C218 474.74 216.7 473.51 215.92 472.12C215.85 474.12 215.86 476.12 215.64 478.12C210.49 479.24 204.93 477.23 200.5 474.68C198.05 471.8 202.01 469.38 203.73 467.42C195.73 464.03 188.02 459.82 179.63 457.42C179.14 458.86 178.63 460.3 178.19 461.76C182.38 461.99 186.64 461.69 190.77 462.6C192.77 463.75 193.45 466.22 194.67 468.06C189.73 471.14 188.01 476.73 184.96 481.33C182.4 476.87 184.76 471.86 185.72 467.33C181.95 467.92 178.21 468.99 174.38 469.06C173.74 468.72 173.215 468.197 172.873 467.557C172.531 466.918 172.387 466.191 172.46 465.47C172.71 461.73 174.03 458.17 174.95 454.56C171.58 454.11 168.05 453.17 164.71 454.22C161.37 455.55 160.39 459.39 158.88 462.3C161.72 462.72 164.72 462.84 167.35 464.13C168.35 465.67 168.24 467.6 167.95 469.35C165.946 469.964 163.797 469.921 161.819 469.229C159.84 468.536 158.134 467.23 156.95 465.5C156.033 463.901 155.504 462.109 155.405 460.268C155.306 458.427 155.64 456.588 156.38 454.9C157.83 452.18 160.68 450.69 162.83 448.59C160.43 447.35 157.93 446.34 155.43 445.34C152.09 451.26 150.03 458.01 145.22 463C144.74 460.49 143.73 457.8 144.84 455.31C146.19 451.31 149.23 447.91 149.71 443.64C149.16 441.59 146.98 440.52 145.57 439.08C141.88 444.16 139.85 450.54 135.02 454.71L133.19 454.35C133.41 449.2 136.36 444.72 137.42 439.74C133.42 440.41 129.42 442.01 125.29 441.43C123.445 440.597 121.896 439.224 120.848 437.492C119.799 435.76 119.302 433.751 119.42 431.73C119.74 428.39 123.75 428.32 126.16 427.3C124.946 426.016 123.576 424.891 122.08 423.95C120.14 424.76 118.61 426.26 116.77 427.23C114.18 427.36 111.71 426.33 109.25 425.67C111.35 430.06 113.076 434.62 114.41 439.3C115.03 441.07 114.05 442.75 113.71 444.46C110.8 439.1 107.36 433.96 105.08 428.3C105.19 424.22 107.09 420.44 108.55 416.74Z" fill="#ED1C24"/>
<path d="M447.14 442.27C449.025 442.1 450.918 442.04 452.81 442.09C452.37 445.16 449.44 448.15 446.33 446.02C444.26 445.53 446.85 443.37 447.14 442.27Z" fill="#ED1C24"/>
<path d="M237.95 474.41C248.95 474.99 259.62 478.23 270.62 479.05C271.749 478.235 272.951 477.525 274.21 476.93C277.07 478.11 279.64 480.42 282.96 480.17C291.47 480.17 299.96 479.88 308.51 480.04C308.89 478.747 309.28 477.457 309.68 476.17C312.554 477.677 315.37 479.28 318.13 480.98L314.37 483.78C314.99 490.44 315.62 497.13 315.1 503.78C313.59 502.85 311.64 502.36 310.6 500.88C309.49 495.62 309.99 490.18 309.6 484.88L303.29 484.56C303.1 491.25 303.29 497.98 302.34 504.63C298.87 501.25 295.57 497.31 290.77 495.85C287.16 494.73 283.59 493.28 280.93 490.5C284.76 488.31 288.66 486.24 292.48 484.03C287.57 483.75 282.66 483.51 277.78 482.91C277.19 489.78 276.85 496.69 275.44 503.46L272 502.1C271.83 495.92 272.2 489.74 272.14 483.55C268.774 482.85 265.394 482.203 262 481.61L265.78 485.73C262.37 490.47 260.91 496.15 260.39 501.9C256.28 498.54 256.47 493.06 256.48 488.25C253.02 489.68 249.7 491.48 246.11 492.59C242.29 490.59 243.81 485.79 243.61 482.33C244.12 478.61 240.08 476.79 237.95 474.41ZM249.39 479.28C249.39 481.01 249.39 482.74 249.39 484.48C252.515 483.824 255.572 482.877 258.52 481.65C255.526 480.683 252.477 479.891 249.39 479.28ZM290.64 491.57C293 492.57 295.39 493.42 297.8 494.28C298.08 492.38 298.37 490.48 298.65 488.59C295.813 489.058 293.093 490.07 290.64 491.57Z" fill="#ED1C24"/>
</svg>
